<svg xmlns="http://www.w3.org/2000/svg" viewBox="0 0 400 480" width="400" height="480">
  <defs>
    <linearGradient id="bg2" x1="0%" y1="0%" x2="100%" y2="100%">
      <stop offset="0%" style="stop-color:#1C1815"/>
      <stop offset="100%" style="stop-color:#28221E"/>
    </linearGradient>
    <linearGradient id="sil2" x1="0%" y1="0%" x2="0%" y2="100%">
      <stop offset="0%" style="stop-color:#5C534A;stop-opacity:0.7"/>
      <stop offset="100%" style="stop-color:#3a2f28;stop-opacity:0.4"/>
    </linearGradient>
  </defs>
  <rect width="400" height="480" fill="url(#bg2)" rx="16"/>
  <rect x="1" y="1" width="398" height="478" fill="none" stroke="#B87551" stroke-width="1.5" rx="15" opacity="0.35"/>
  <!-- Silhueta -->
  <ellipse cx="200" cy="130" rx="58" ry="62" fill="url(#sil2)"/>
  <rect x="180" y="184" width="40" height="30" fill="url(#sil2)" rx="3"/>
  <path d="M60 340 Q95 210 155 220 L200 226 L245 220 Q305 210 340 340 L360 480 L40 480 Z" fill="url(#sil2)"/>
  <!-- Label -->
  <rect x="40" y="410" width="320" height="48" fill="#B87551" opacity="0.12" rx="8"/>
  <text x="200" y="432" text-anchor="middle" font-family="Georgia, serif" font-size="12" fill="#D9A57C" font-weight="700" letter-spacing="1">Dra. Bruna Beloti</text>
  <text x="200" y="448" text-anchor="middle" font-family="Arial, sans-serif" font-size="9" fill="#F7F1E8" opacity="0.5" letter-spacing="2">SUBSTITUIR PELA FOTO REAL</text>
  <path d="M14 14 L42 14 L14 42 Z" fill="#B87551" opacity="0.3"/>
  <path d="M386 466 L358 466 L386 438 Z" fill="#B87551" opacity="0.3"/>
</svg>
